<svg width="317" height="78" viewBox="0 0 317 78" fill="none" xmlns="http://www.w3.org/2000/svg">
<g filter="url(#filter0_d)">
<path d="M68.792 7.072L57.08 52H43.832L36.664 22.432L29.24 52H15.992L4.6 7.072H16.312L22.776 39.776L30.776 7.072H42.808L50.488 39.776L57.016 7.072H68.792ZM90.5365 52.512C87.0378 52.512 83.8805 51.7653 81.0645 50.272C78.2912 48.7787 76.0938 46.6453 74.4725 43.872C72.8938 41.0987 72.1045 37.856 72.1045 34.144C72.1045 30.4747 72.9152 27.2533 74.5365 24.48C76.1578 21.664 78.3765 19.5093 81.1925 18.016C84.0085 16.5227 87.1658 15.776 90.6645 15.776C94.1632 15.776 97.3205 16.5227 100.137 18.016C102.953 19.5093 105.171 21.664 106.793 24.48C108.414 27.2533 109.225 30.4747 109.225 34.144C109.225 37.8133 108.393 41.056 106.729 43.872C105.107 46.6453 102.867 48.7787 100.009 50.272C97.1925 51.7653 94.0352 52.512 90.5365 52.512ZM90.5365 43.04C92.6272 43.04 94.3978 42.272 95.8485 40.736C97.3418 39.2 98.0885 37.0027 98.0885 34.144C98.0885 31.2853 97.3632 29.088 95.9125 27.552C94.5045 26.016 92.7552 25.248 90.6645 25.248C88.5312 25.248 86.7605 26.016 85.3525 27.552C83.9445 29.0453 83.2405 31.2427 83.2405 34.144C83.2405 37.0027 83.9232 39.2 85.2885 40.736C86.6965 42.272 88.4458 43.04 90.5365 43.04ZM125.975 22.24C127.255 20.2773 128.855 18.7413 130.775 17.632C132.695 16.48 134.828 15.904 137.175 15.904V27.488H134.167C131.436 27.488 129.388 28.0853 128.023 29.28C126.657 30.432 125.975 32.48 125.975 35.424V52H115.031V16.288H125.975V22.24ZM164.23 52L153.35 37.024V52H142.406V4.64H153.35V30.816L164.166 16.288H177.67L162.822 34.208L177.798 52H164.23ZM206.475 21.344C207.541 19.68 209.013 18.336 210.891 17.312C212.768 16.288 214.965 15.776 217.483 15.776C220.427 15.776 223.093 16.5227 225.483 18.016C227.872 19.5093 229.749 21.6427 231.115 24.416C232.523 27.1893 233.227 30.4107 233.227 34.08C233.227 37.7493 232.523 40.992 231.115 43.808C229.749 46.5813 227.872 48.736 225.483 50.272C223.093 51.7653 220.427 52.512 217.483 52.512C215.008 52.512 212.811 52 210.891 50.976C209.013 49.952 207.541 48.6293 206.475 47.008V69.024H195.531V16.288H206.475V21.344ZM222.091 34.08C222.091 31.3493 221.323 29.216 219.787 27.68C218.293 26.1013 216.437 25.312 214.219 25.312C212.043 25.312 210.187 26.1013 208.651 27.68C207.157 29.2587 206.411 31.4133 206.411 34.144C206.411 36.8747 207.157 39.0293 208.651 40.608C210.187 42.1867 212.043 42.976 214.219 42.976C216.395 42.976 218.251 42.1867 219.787 40.608C221.323 38.9867 222.091 36.8107 222.091 34.08ZM249.912 4.64V52H238.968V4.64H249.912ZM263.347 12.576C261.427 12.576 259.848 12.0213 258.611 10.912C257.416 9.76 256.819 8.352 256.819 6.688C256.819 4.98133 257.416 3.57333 258.611 2.464C259.848 1.312 261.427 0.735996 263.347 0.735996C265.224 0.735996 266.76 1.312 267.955 2.464C269.192 3.57333 269.811 4.98133 269.811 6.688C269.811 8.352 269.192 9.76 267.955 10.912C266.76 12.0213 265.224 12.576 263.347 12.576ZM268.787 16.288V52H257.843V16.288H268.787ZM298.478 15.904C302.659 15.904 305.987 17.2693 308.462 20C310.979 22.688 312.238 26.4 312.238 31.136V52H301.358V32.608C301.358 30.2187 300.739 28.3627 299.502 27.04C298.265 25.7173 296.601 25.056 294.51 25.056C292.419 25.056 290.755 25.7173 289.518 27.04C288.281 28.3627 287.662 30.2187 287.662 32.608V52H276.718V16.288H287.662V21.024C288.771 19.4453 290.265 18.208 292.142 17.312C294.019 16.3733 296.131 15.904 298.478 15.904Z" fill="black"/>
</g>
<defs>
<filter id="filter0_d" x="0.600006" y="0.735962" width="315.638" height="76.288" filterUnits="userSpaceOnUse" color-interpolation-filters="sRGB">
<feFlood flood-opacity="0" result="BackgroundImageFix"/>
<feColorMatrix in="SourceAlpha" type="matrix" values="0 0 0 0 0 0 0 0 0 0 0 0 0 0 0 0 0 0 127 0" result="hardAlpha"/>
<feOffset dy="4"/>
<feGaussianBlur stdDeviation="2"/>
<feColorMatrix type="matrix" values="0 0 0 0 0 0 0 0 0 0 0 0 0 0 0 0 0 0 0.25 0"/>
<feBlend mode="normal" in2="BackgroundImageFix" result="effect1_dropShadow"/>
<feBlend mode="normal" in="SourceGraphic" in2="effect1_dropShadow" result="shape"/>
</filter>
</defs>
</svg>
