<svg width="239" height="60" viewBox="0 0 239 60" fill="none" xmlns="http://www.w3.org/2000/svg">
<g filter="url(#filter0_d)">
<path d="M52.344 5.304L43.56 39H33.624L28.248 16.824L22.68 39H12.744L4.2 5.304H12.984L17.832 29.832L23.832 5.304H32.856L38.616 29.832L43.512 5.304H52.344ZM68.6524 39.384C66.0284 39.384 63.6604 38.824 61.5484 37.704C59.4684 36.584 57.8204 34.984 56.6044 32.904C55.4204 30.824 54.8284 28.392 54.8284 25.608C54.8284 22.856 55.4364 20.44 56.6524 18.36C57.8684 16.248 59.5324 14.632 61.6444 13.512C63.7564 12.392 66.1244 11.832 68.7484 11.832C71.3724 11.832 73.7404 12.392 75.8524 13.512C77.9644 14.632 79.6284 16.248 80.8444 18.36C82.0604 20.44 82.6684 22.856 82.6684 25.608C82.6684 28.36 82.0444 30.792 80.7964 32.904C79.5804 34.984 77.9004 36.584 75.7564 37.704C73.6444 38.824 71.2764 39.384 68.6524 39.384ZM68.6524 32.28C70.2204 32.28 71.5484 31.704 72.6364 30.552C73.7564 29.4 74.3164 27.752 74.3164 25.608C74.3164 23.464 73.7724 21.816 72.6844 20.664C71.6284 19.512 70.3164 18.936 68.7484 18.936C67.1484 18.936 65.8204 19.512 64.7644 20.664C63.7084 21.784 63.1804 23.432 63.1804 25.608C63.1804 27.752 63.6924 29.4 64.7164 30.552C65.7724 31.704 67.0844 32.28 68.6524 32.28ZM95.2309 16.68C96.1909 15.208 97.3909 14.056 98.8309 13.224C100.271 12.36 101.871 11.928 103.631 11.928V20.616H101.375C99.3269 20.616 97.7909 21.064 96.7669 21.96C95.7429 22.824 95.2309 24.36 95.2309 26.568V39H87.0229V12.216H95.2309V16.68ZM123.922 39L115.762 27.768V39H107.554V3.48H115.762V23.112L123.874 12.216H134.002L122.866 25.656L134.098 39H123.922Z" fill="black"/>
<path d="M155.606 16.008C156.406 14.76 157.51 13.752 158.918 12.984C160.326 12.216 161.974 11.832 163.862 11.832C166.07 11.832 168.07 12.392 169.862 13.512C171.654 14.632 173.062 16.232 174.086 18.312C175.142 20.392 175.67 22.808 175.67 25.56C175.67 28.312 175.142 30.744 174.086 32.856C173.062 34.936 171.654 36.552 169.862 37.704C168.07 38.824 166.07 39.384 163.862 39.384C162.006 39.384 160.358 39 158.918 38.232C157.51 37.464 156.406 36.472 155.606 35.256V51.768H147.398V12.216H155.606V16.008ZM167.318 25.56C167.318 23.512 166.742 21.912 165.59 20.76C164.47 19.576 163.078 18.984 161.414 18.984C159.782 18.984 158.39 19.576 157.238 20.76C156.118 21.944 155.558 23.56 155.558 25.608C155.558 27.656 156.118 29.272 157.238 30.456C158.39 31.64 159.782 32.232 161.414 32.232C163.046 32.232 164.438 31.64 165.59 30.456C166.742 29.24 167.318 27.608 167.318 25.56ZM188.184 3.48V39H179.976V3.48H188.184ZM198.26 9.432C196.82 9.432 195.636 9.016 194.708 8.184C193.812 7.32 193.364 6.264 193.364 5.016C193.364 3.736 193.812 2.68 194.708 1.848C195.636 0.983997 196.82 0.551997 198.26 0.551997C199.668 0.551997 200.82 0.983997 201.716 1.848C202.644 2.68 203.108 3.736 203.108 5.016C203.108 6.264 202.644 7.32 201.716 8.184C200.82 9.016 199.668 9.432 198.26 9.432ZM202.34 12.216V39H194.132V12.216H202.34ZM224.609 11.928C227.745 11.928 230.241 12.952 232.097 15C233.985 17.016 234.929 19.8 234.929 23.352V39H226.769V24.456C226.769 22.664 226.305 21.272 225.377 20.28C224.449 19.288 223.201 18.792 221.633 18.792C220.065 18.792 218.817 19.288 217.889 20.28C216.961 21.272 216.497 22.664 216.497 24.456V39H208.289V12.216H216.497V15.768C217.329 14.584 218.449 13.656 219.857 12.984C221.265 12.28 222.849 11.928 224.609 11.928Z" fill="#6C63FF"/>
</g>
<defs>
<filter id="filter0_d" x="0.200012" y="0.552002" width="238.729" height="59.216" filterUnits="userSpaceOnUse" color-interpolation-filters="sRGB">
<feFlood flood-opacity="0" result="BackgroundImageFix"/>
<feColorMatrix in="SourceAlpha" type="matrix" values="0 0 0 0 0 0 0 0 0 0 0 0 0 0 0 0 0 0 127 0" result="hardAlpha"/>
<feOffset dy="4"/>
<feGaussianBlur stdDeviation="2"/>
<feColorMatrix type="matrix" values="0 0 0 0 0 0 0 0 0 0 0 0 0 0 0 0 0 0 0.25 0"/>
<feBlend mode="normal" in2="BackgroundImageFix" result="effect1_dropShadow"/>
<feBlend mode="normal" in="SourceGraphic" in2="effect1_dropShadow" result="shape"/>
</filter>
</defs>
</svg>
